<svg width="48" height="48" viewBox="0 0 48 48" fill="none" xmlns="http://www.w3.org/2000/svg">
<path d="M24 30C27.3137 30 30 27.3137 30 24C30 20.6863 27.3137 18 24 18C20.6863 18 18 20.6863 18 24C18 27.3137 20.6863 30 24 30Z" fill="#E95420"/>
<path d="M39.6 25.2L36.48 24.96C36.36 24.36 36.18 23.76 35.94 23.22L37.8 20.88C38.04 20.58 38.04 20.16 37.8 19.86L35.34 17.4C35.04 17.16 34.62 17.16 34.32 17.4L31.98 19.26C31.44 19.02 30.84 18.84 30.24 18.72L30 15.6C30 15.24 29.76 15 29.4 15H26.1C25.74 15 25.5 15.24 25.5 15.6L25.26 18.72C24.66 18.84 24.06 19.02 23.52 19.26L21.18 17.4C20.88 17.16 20.46 17.16 20.16 17.4L17.7 19.86C17.46 20.16 17.46 20.58 17.7 20.88L19.56 23.22C19.32 23.76 19.14 24.36 19.02 24.96L15.9 25.2C15.54 25.2 15.3 25.44 15.3 25.8V29.1C15.3 29.46 15.54 29.7 15.9 29.7L19.02 29.94C19.14 30.54 19.32 31.14 19.56 31.68L17.7 34.02C17.46 34.32 17.46 34.74 17.7 35.04L20.16 37.5C20.46 37.74 20.88 37.74 21.18 37.5L23.52 35.64C24.06 35.88 24.66 36.06 25.26 36.18L25.5 39.3C25.5 39.66 25.74 39.9 26.1 39.9H29.4C29.76 39.9 30 39.66 30 39.3L30.24 36.18C30.84 36.06 31.44 35.88 31.98 35.64L34.32 37.5C34.62 37.74 35.04 37.74 35.34 37.5L37.8 35.04C38.04 34.74 38.04 34.32 37.8 34.02L35.94 31.68C36.18 31.14 36.36 30.54 36.48 29.94L39.6 29.7C39.96 29.7 40.2 29.46 40.2 29.1V25.8C40.2 25.44 39.96 25.2 39.6 25.2ZM24 32C19.58 32 16 28.42 16 24C16 19.58 19.58 16 24 16C28.42 16 32 19.58 32 24C32 28.42 28.42 32 24 32Z" fill="#E95420"/>
</svg>